<svg width="24" height="24" viewBox="0 0 24 24" fill="none" xmlns="http://www.w3.org/2000/svg">
<path d="M7.61016 0.926514C3.89871 0.926514 0.879089 3.94613 0.879089 7.65759V16.4373C0.879089 20.1487 3.89871 23.1683 7.61016 23.1683H16.3898C20.1013 23.1683 23.1209 20.1487 23.1209 16.4373V7.65759C23.1209 3.94613 20.1013 0.926514 16.3898 0.926514H7.61016ZM17.8531 5.02369C18.4999 5.02369 19.0237 5.54754 19.0237 6.19431C19.0237 6.84049 18.4999 7.36493 17.8531 7.36493C17.2063 7.36493 16.6825 6.84049 16.6825 6.19431C16.6825 5.54754 17.2063 5.02369 17.8531 5.02369ZM12 6.19431C15.2274 6.19431 17.8531 8.82002 17.8531 12.0474C17.8531 15.2748 15.2274 17.9005 12 17.9005C8.77259 17.9005 6.14689 15.2748 6.14689 12.0474C6.14689 8.82002 8.77259 6.19431 12 6.19431ZM12 7.95024C11.4619 7.95024 10.9292 8.05622 10.4321 8.26212C9.93498 8.46803 9.48331 8.76982 9.10285 9.15028C8.7224 9.53074 8.4206 9.98241 8.2147 10.4795C8.0088 10.9766 7.90282 11.5094 7.90282 12.0474C7.90282 12.5855 8.0088 13.1182 8.2147 13.6153C8.4206 14.1124 8.7224 14.5641 9.10285 14.9446C9.48331 15.325 9.93498 15.6268 10.4321 15.8327C10.9292 16.0386 11.4619 16.1446 12 16.1446C12.538 16.1446 13.0708 16.0386 13.5679 15.8327C14.065 15.6268 14.5167 15.325 14.8971 14.9446C15.2776 14.5641 15.5794 14.1124 15.7853 13.6153C15.9912 13.1182 16.0972 12.5855 16.0972 12.0474C16.0972 11.5094 15.9912 10.9766 15.7853 10.4795C15.5794 9.98241 15.2776 9.53074 14.8971 9.15028C14.5167 8.76982 14.065 8.46803 13.5679 8.26212C13.0708 8.05622 12.538 7.95024 12 7.95024Z" fill="#F0F0F0"/>
</svg>
