<svg width="300" height="300" viewBox="0 0 300 300" fill="none" xmlns="http://www.w3.org/2000/svg">
<path fill-rule="evenodd" clip-rule="evenodd" d="M150 268C215.169 268 268 215.169 268 150C268 84.8304 215.169 32 150 32C84.8304 32 32 84.8304 32 150C32 215.169 84.8304 268 150 268ZM157.445 151.675H173.265C175.48 151.675 177.392 150.112 177.829 147.934L180.621 133.975C181.194 131.095 178.993 128.41 176.057 128.41H157.445V115.084C157.445 108.616 158.055 105.145 167.337 105.145H176.057C178.625 105.145 180.71 103.061 180.71 100.492V86.5331C180.71 83.9647 178.625 81.8801 176.057 81.8801H161.8C137.958 81.8801 129.55 93.8938 129.527 114.13V128.41H115.568C112.999 128.41 110.915 130.495 110.915 133.063V147.022C110.915 149.591 112.999 151.675 115.568 151.675H129.527V221.47C129.527 224.038 131.611 226.123 134.18 226.123H152.792C155.36 226.123 157.445 224.038 157.445 221.47V151.675Z" fill="white"/>
</svg>
