<svg width="300" height="300" viewBox="0 0 300 300" fill="none" xmlns="http://www.w3.org/2000/svg">
<path fill-rule="evenodd" clip-rule="evenodd" d="M150.288 273.575C218.378 273.575 273.575 218.378 273.575 150.288C273.575 82.1978 218.378 27 150.288 27C82.1978 27 27 82.1978 27 150.288C27 218.378 82.1978 273.575 150.288 273.575ZM92.0159 129.318C89.9807 123.169 87.6705 111.949 93.391 98.5072C110.459 98.5072 124.69 111.326 125.202 111.801C133.161 110.043 141.64 109.566 150.298 109.566C159.137 109.566 167.786 110.29 175.899 112.32C187.324 100.891 201.142 98.5072 207.022 98.5072C207.022 98.5072 210.804 104.813 210.804 116.132C210.804 123.657 209.114 127.629 207.881 129.663C216.484 138.676 221.799 150.905 221.794 166.586C221.794 206.768 196.547 220.151 150.287 220.151C104.028 220.151 78.7803 206.768 78.7803 166.586C78.7803 150.352 83.8036 138.165 92.0159 129.318ZM135.147 152.319C130.558 151.681 126.169 151.072 122.806 151.035C108.934 151.035 100.804 162.108 100.804 175.766C100.804 198.17 113.692 209.087 150.276 209.093H150.298H150.309C186.893 209.087 199.781 198.17 199.781 175.766C199.781 162.108 191.651 151.035 177.779 151.035C174.416 151.072 170.03 151.681 165.443 152.319C160.254 153.04 154.809 153.797 150.298 153.8C145.787 153.797 140.339 153.04 135.147 152.319ZM119.69 173.627C121.237 171.553 123.336 170.388 125.524 170.388C127.712 170.388 129.811 171.553 131.358 173.627C132.906 175.701 133.775 178.513 133.775 181.446C133.775 184.379 132.906 187.192 131.358 189.266C129.811 191.34 127.712 192.505 125.524 192.505C123.336 192.505 121.237 191.34 119.69 189.266C118.142 187.192 117.273 184.379 117.273 181.446C117.273 178.513 118.142 175.701 119.69 173.627ZM169.195 173.627C170.742 171.553 172.84 170.388 175.029 170.388C177.217 170.388 179.316 171.553 180.863 173.627C182.41 175.701 183.28 178.513 183.28 181.446C183.28 184.379 182.41 187.192 180.863 189.266C179.316 191.34 177.217 192.505 175.029 192.505C172.84 192.505 170.742 191.34 169.195 189.266C167.647 187.192 166.778 184.379 166.778 181.446C166.778 178.513 167.647 175.701 169.195 173.627Z" fill="white"/>
</svg>
