<svg width="300" height="300" viewBox="0 0 300 300" fill="none" xmlns="http://www.w3.org/2000/svg">
<path fill-rule="evenodd" clip-rule="evenodd" d="M149.5 265C212.737 265 264 213.737 264 150.5C264 87.2634 212.737 36 149.5 36C86.2634 36 35 87.2634 35 150.5C35 213.737 86.2634 265 149.5 265ZM179.67 99.7176C168.933 104.215 117.884 125.598 78.0553 143.27C67.6896 147.87 65.156 152.657 75.8293 156.354C76.0757 156.439 76.3563 156.536 76.6683 156.645C79.868 157.758 86.3699 160.02 93.0121 161.944C102.66 164.739 108.034 162.982 113.631 159.149C117.335 156.61 146.441 137.122 167.434 123.081C169.789 121.504 172.352 124.736 170.312 126.704C154.737 141.689 134.746 160.94 131.697 163.952C123.463 172.077 129.447 176.359 134.324 179.848C134.523 179.99 134.72 180.131 134.915 180.271C140.342 184.188 165.351 200.867 170.305 204.165C180.608 211.021 187.16 209.143 190.081 193.298C193.504 174.71 197.534 148.279 200.391 129.547C201.64 121.351 202.666 114.629 203.317 110.682C206.297 92.6417 200.321 91.0806 180.843 99.2264C180.532 99.3571 180.14 99.5211 179.67 99.7176Z" fill="white"/>
</svg>
