<svg width="300" height="300" viewBox="0 0 300 300" fill="none" xmlns="http://www.w3.org/2000/svg">
<path fill-rule="evenodd" clip-rule="evenodd" d="M150.411 273.698C218.501 273.698 273.698 218.501 273.698 150.411C273.698 82.3208 218.501 27.123 150.411 27.123C82.3208 27.123 27.123 82.3208 27.123 150.411C27.123 218.501 82.3208 273.698 150.411 273.698ZM103.455 116.419H94.8473C90.0908 116.419 86.2389 120.271 86.2389 125.027V198.196C86.2389 202.952 90.0908 206.804 94.8473 206.804H103.455C108.211 206.804 112.063 202.952 112.063 198.196V125.027C112.063 120.271 108.211 116.419 103.455 116.419ZM98.927 103.507H99.0694C107.079 103.507 112.063 97.7564 112.063 90.5948C111.921 83.2521 107.079 77.6827 99.2327 77.6827C91.382 77.6827 86.2389 83.2521 86.2389 90.5948C86.2389 97.7564 91.2233 103.507 98.927 103.507ZM198.144 206.804H206.752C211.509 206.804 215.36 202.952 215.36 198.196V154.476C215.36 127.45 200.924 116.419 181.673 116.419C166.139 116.419 159.025 123.413 155.134 129.421V125.027C155.134 120.271 151.282 116.419 146.525 116.419H137.887C133.132 116.419 129.279 120.271 129.279 125.027V198.196C129.279 202.952 133.132 206.804 137.887 206.804H146.525C151.282 206.804 155.103 202.952 155.103 198.196V158.384C155.103 157.979 155.099 157.513 155.094 157.007C155.066 154.231 155.026 150.254 155.684 148.652C157.806 143.401 162.886 137.957 171.291 137.957C183.054 137.957 189.536 146.027 189.536 157.859V198.196C189.536 202.952 193.388 206.804 198.144 206.804Z" fill="white"/>
</svg>
