<svg width="300" height="300" viewBox="0 0 300 300" fill="none" xmlns="http://www.w3.org/2000/svg">
<path fill-rule="evenodd" clip-rule="evenodd" d="M150.288 273.575C218.377 273.575 273.575 218.377 273.575 150.288C273.575 82.1978 218.377 27 150.288 27C82.1978 27 27 82.1978 27 150.288C27 218.377 82.1978 273.575 150.288 273.575ZM210.156 113.269C211.331 112.731 212.709 112.995 213.605 113.917C214.501 114.837 214.714 116.222 214.14 117.372C214.025 117.598 211.634 122.187 205.281 128.304C205.288 128.473 205.299 128.641 205.311 128.81C205.328 129.082 205.347 129.355 205.347 129.631V131.144C205.347 162.861 181.696 209.792 130.935 209.792C100.366 209.792 88.5108 196.701 88.0223 196.141C86.8439 194.804 86.5616 192.901 87.3021 191.28C88.0402 189.659 89.6651 188.618 91.4511 188.618C102.756 188.618 112.208 186.485 119.087 184.202C106.206 179.785 100.274 172.105 99.9552 171.678C99.0078 170.42 98.783 168.765 99.357 167.298C99.9342 165.834 101.231 164.773 102.783 164.491L105.343 164.028C91.3025 154.887 90.0089 142.781 89.9506 142.143C89.7841 140.295 90.7619 138.531 92.4203 137.687C94.0848 136.846 96.0893 137.1 97.4894 138.316C97.5198 138.343 98.713 139.35 100.76 140.594C96.3655 135.809 92.9702 129.656 92.9702 122.069C92.9702 111.421 98.2579 105.85 98.8592 105.248C99.9466 104.168 101.505 103.699 103.005 104.016C104.508 104.328 105.753 105.366 106.319 106.788C106.668 107.64 115.075 127.424 144.606 130.902L147.64 131.144V129.631C147.64 113.76 160.557 100.895 176.494 100.895C184.303 100.895 191.376 103.998 196.57 109.017C200.01 107.964 203.339 106.455 206.806 104.359C207.884 103.702 209.257 103.784 210.252 104.558C211.249 105.332 211.658 106.642 211.282 107.84C210.605 110.012 209.624 112.111 208.388 114.075C208.792 113.893 209.194 113.709 209.596 113.525L209.657 113.497L210.156 113.269Z" fill="white"/>
</svg>
