<svg width="8" height="13" viewBox="0 0 8 13" fill="none" xmlns="http://www.w3.org/2000/svg">
<g style="mix-blend-mode:hard-light">
<path d="M6.22915 0.866499C5.95087 0.866499 5.72704 0.970563 5.53345 1.17869L0.978107 5.9526C0.724025 6.23227 0.603033 6.50544 0.596983 6.85015C0.596983 7.18836 0.717975 7.47453 0.978107 7.7477L5.53345 12.5281C5.72704 12.7297 5.95692 12.8338 6.22915 12.8338C6.79176 12.8338 7.24548 12.3525 7.24548 11.7541C7.24548 11.455 7.13054 11.1818 6.91881 10.9542L2.97447 6.84365L6.9188 2.74615C7.13054 2.51851 7.24548 2.24534 7.24548 1.94616C7.24548 1.3543 6.79176 0.866499 6.22915 0.866499Z" fill="white"/>
</g>
</svg>
