<svg width="300" height="300" viewBox="0 0 300 300" fill="none" xmlns="http://www.w3.org/2000/svg">
<path fill-rule="evenodd" clip-rule="evenodd" d="M150.411 273.698C218.501 273.698 273.698 218.501 273.698 150.411C273.698 82.3208 218.501 27.123 150.411 27.123C82.3208 27.123 27.123 82.3208 27.123 150.411C27.123 218.501 82.3208 273.698 150.411 273.698ZM219.25 205.206H168.369L180.34 193.27V117.311L144.419 205.248L144.424 205.206L105.516 117.922V182.187L123.474 205.206H81.5719L99.5299 182.187V109.987L87.5581 94.7951H124.961L155.215 162.666L182.87 94.8371H218.843L207.197 108.235L207.278 193.27L219.25 205.206Z" fill="white"/>
</svg>
