<svg width="26" height="20" viewBox="0 0 26 20" fill="none" xmlns="http://www.w3.org/2000/svg">
<path d="M12.8689 0.975098C9.15058 0.975098 5.69586 1.24002 3.72455 1.65186C3.72035 1.65298 3.71616 1.65412 3.71197 1.65529C2.2268 1.98809 0.828321 3.05192 0.533918 4.71789C0.533528 4.72017 0.533147 4.72246 0.532775 4.72475C0.306602 6.06746 0.0755005 7.81779 0.0755005 10.3401C0.0755005 12.8576 0.307395 14.5615 0.593363 15.9748C0.89498 17.5917 2.26118 18.6877 3.76913 19.0249C3.77635 19.0268 3.78359 19.0288 3.79085 19.0306C5.84825 19.436 9.20545 19.705 12.9238 19.705C16.6421 19.705 20.0011 19.436 22.059 19.0306C22.0662 19.0288 22.0735 19.0268 22.0807 19.0249C23.5659 18.6921 24.9643 17.6282 25.2587 15.9623C25.2595 15.9581 25.2603 15.9539 25.261 15.9497C25.4837 14.5796 25.7723 12.8309 25.8292 10.3046C25.8293 10.2982 25.8293 10.2917 25.8292 10.2852C25.8292 7.7575 25.5399 5.99629 25.2576 4.60128C24.9583 2.981 23.5906 1.88202 22.0807 1.5444C22.0576 1.53928 22.0343 1.53508 22.0109 1.53183C20.0032 1.24958 16.5878 0.975098 12.8689 0.975098ZM10.7026 5.95138C10.9194 5.9469 11.1435 5.99818 11.3542 6.11715L16.3899 8.96253C17.2392 9.44249 17.2392 10.6535 16.3899 11.1334L11.3542 13.9788C10.5119 14.4541 9.4622 13.8521 9.4622 12.8928V7.20203C9.4622 6.48254 10.0521 5.96483 10.7026 5.95138Z" fill="#F0F0F0"/>
</svg>
