<svg width="365" height="365" viewBox="0 0 365 365" fill="none" xmlns="http://www.w3.org/2000/svg">
<path fill-rule="evenodd" clip-rule="evenodd" d="M182.5 341C270.037 341 341 270.037 341 182.5C341 94.9629 270.037 24 182.5 24C94.9629 24 24 94.9629 24 182.5C24 270.037 94.9629 341 182.5 341ZM209.86 106.017C211.061 106.116 239.398 108.555 257.317 122.959C267.042 131.923 286 183.186 286 227.501C286 228.284 285.797 229.049 285.406 229.728C272.32 252.718 236.626 258.739 228.486 258.995C228.451 258.999 228.417 259 228.38 259C228.369 259 228.358 259 228.346 259C226.91 259 225.556 258.316 224.706 257.151L216.475 245.842C238.673 240.1 250.013 230.367 250.67 229.787C252.529 228.149 252.704 225.318 251.066 223.455C249.428 221.579 246.589 221.417 244.726 223.032C244.519 223.212 223.635 241 182.5 241C141.438 241 120.562 223.28 120.287 223.037C118.42 221.399 115.585 221.574 113.943 223.437C112.296 225.3 112.471 228.144 114.334 229.787C114.987 230.367 126.326 240.1 148.525 245.842L140.295 257.151C139.444 258.316 138.09 259 136.654 259C136.604 259 136.56 259 136.51 258.995C128.379 258.739 92.68 252.718 79.5895 229.728C79.2025 229.049 79 228.284 79 227.501C79 183.186 97.9585 131.923 107.449 123.161C125.606 108.555 153.943 106.116 155.14 106.021C157.039 105.832 158.83 106.926 159.609 108.663C159.658 108.775 160.279 110.193 160.972 112.411C149.119 114.404 134.571 118.441 121.399 126.608C119.288 127.918 118.636 130.69 119.95 132.805C121.259 134.915 124.032 135.568 126.146 134.254C148.772 120.214 177.059 119.503 182.5 119.503C187.941 119.503 216.223 120.214 238.858 134.254C239.596 134.713 240.415 134.929 241.225 134.929C242.732 134.929 244.204 134.173 245.055 132.8C246.364 130.685 245.716 127.913 243.605 126.604C230.434 118.432 215.881 114.4 204.033 112.407C204.721 110.188 205.342 108.771 205.396 108.658C206.174 106.926 207.97 105.855 209.86 106.017ZM137.5 191.501C137.5 201.442 144.551 209.501 153.25 209.501C161.949 209.501 169 201.442 169 191.501C169 181.561 161.949 173.502 153.25 173.502C144.551 173.502 137.5 181.561 137.5 191.501ZM196 191.501C196 201.442 203.051 209.501 211.75 209.501C220.449 209.501 227.5 201.442 227.5 191.501C227.5 181.561 220.449 173.502 211.75 173.502C203.051 173.502 196 181.561 196 191.501Z" fill="white"/>
</svg>
